# xmcd
#
# Track frame offsets:
#	150
#	14065
#	27185
#	38050
#	54767
#	65837
#	79517
#	92282
#	107635
#	119800
#	134090
#	146870
#
# Disc length: 2117 seconds
#
# Revision: 1
# Processed by: cddbd v1.5.2PL0 Copyright (c) Steve Scherf et al.
# Submitted via: audiograbber 1.83.01
#
DISCID=a708430c
DTITLE=Franz Mihelic - Musik aus Oberkrain
DYEAR=1900
DGENRE=
TTITLE0=Musik aus Oberkrain
TTITLE1=Glaub an unser Wiedersehn
TTITLE2=Am Wochenende
TTITLE3=Mein kleiner Sohn
TTITLE4=Lass uns tanzen
TTITLE5=Frühlings-Blumen
TTITLE6=Goldmarie
TTITLE7=Gute Nacht, mein Mädchen
TTITLE8=Die schöne Sennerin
TTITLE9=Wenn ich allein bin
TTITLE10=Der Mann, der das Wenn und das Aber erdacht
TTITLE11=Bleib immer lustig
EXTD=
EXTT0=
EXTT1=
EXTT2=
EXTT3=
EXTT4=
EXTT5=
EXTT6=
EXTT7=
EXTT8=
EXTT9=
EXTT10=
EXTT11=
PLAYORDER=
